<svg width="60" height="32" viewBox="0 0 60 32" fill="none" xmlns="http://www.w3.org/2000/svg">
<path d="M49.0761 1.88267C49.2417 1.80515 50.0338 1.38151 50.9782 1.11409C51.4961 0.967449 53.1711 0.974746 54.3735 1.06492C54.8858 1.10334 55.4827 1.29497 56.0901 1.52553C56.5436 1.69769 56.9598 1.91513 57.3823 2.32871C57.8589 2.7951 57.8759 3.19179 58.0886 3.82837C58.5935 5.33965 59.1703 6.46218 59.3303 7.48216C59.5879 9.1246 59.2883 9.76997 59.132 10.5668C58.8819 11.842 58.4929 12.1404 58.2863 12.4628C57.9541 12.9812 57.3164 13.3542 56.6236 13.8005C56.1475 14.1072 55.7286 14.3965 55.2334 14.5995C54.8452 14.7586 54.3037 14.8619 53.8096 14.9454C52.5548 15.1572 50.5745 14.9848 50.2118 14.924C49.8777 14.8679 49.5778 14.7274 49.2303 14.5282C48.7637 14.2606 48.422 13.9665 48.1672 13.7342C47.8514 13.4464 47.4758 13.0656 47.1189 12.5927C46.8109 12.1846 46.4874 11.3391 46.2624 10.6685C46.1567 10.3536 46.0217 9.89043 45.8729 9.25343C45.4828 7.58281 45.7809 6.03344 45.958 5.45643C46.2606 4.89381 46.7597 4.03972 47.2176 3.20401C47.4182 2.85416 47.5544 2.65504 47.6947 2.44989" stroke="white" stroke-linecap="round"/>
<path d="M52.7104 10.4188C52.8353 10.4418 53.3402 10.6284 53.8473 10.8679C54.2822 11.0733 54.7824 11.3661 55.1537 11.5086C55.5329 11.6711 55.8498 11.7676 56.1793 11.8595C56.266 11.8768 56.3569 11.8835 56.4507 11.909" stroke="white" stroke-linecap="round"/>
<path d="M55.7233 6.18951C55.7233 6.19553 55.7233 6.20155 55.7233 6.44998C55.7233 6.6984 55.7233 7.18906 55.7026 7.83708" stroke="white" stroke-linecap="round"/>
<path d="M57.522 6.63155V8.10044" stroke="white" stroke-linecap="round"/>
<path d="M40.9434 16.9895C41.2453 16.9895 41.9906 16.9416 42.4576 16.8482C43.0605 16.7275 44.7801 16.0347 45.7828 15.5273C46.4929 15.1679 47.0854 14.7888 47.4157 14.5033C47.619 14.3242 47.8121 14.1517 47.9676 14.009C48.0422 13.9409 48.1077 13.8816 48.1942 13.8017" stroke="white" stroke-linecap="round"/>
<path d="M46.9436 15.1741C46.9556 15.2105 46.9945 15.3665 47.0525 15.9788C47.1735 17.2572 47.1901 18.3972 47.3352 19.8372C47.4495 20.9714 47.4573 22.9401 47.5184 24.1486C47.6248 26.2496 47.7681 26.5842 47.8038 26.932C47.8429 27.3143 47.8744 27.7056 47.9621 28.1631C48.038 28.5595 48.335 28.7893 48.6469 28.946C48.9845 29.1157 49.7398 29.0323 51.7019 29.0409C52.087 29.0426 52.1867 28.9913 52.2688 28.9416C52.5718 28.7581 52.7377 28.3338 52.8427 27.9139C52.9078 27.6536 52.8066 27.4217 52.6776 27.2585C52.3412 26.8332 51.8822 26.7978 51.5125 26.7517C50.6511 26.7205 49.1359 26.7902 48.7677 26.9641C48.6915 27.0069 48.615 27.048 48.4972 27.1089" stroke="white" stroke-linecap="round"/>
<path d="M42.8185 12.2942C42.7493 12.3936 42.5646 12.6931 42.1875 13.0906C41.7191 13.5845 41.204 14.3345 40.7686 14.9245C40.4177 15.3999 40.0214 15.848 39.7461 16.2918C39.3867 16.871 39.4199 17.7726 39.3749 18.2635C39.3427 18.6147 39.3415 18.9785 39.3225 19.414C39.2933 20.0857 39.2865 21.3242 39.303 22.642C39.3135 23.4722 39.4504 23.8579 39.5375 24.6709C39.6727 25.9346 39.6043 26.989 39.6575 27.687C39.6937 28.1628 39.6854 28.889 39.7625 29.2888C39.8396 29.6887 39.9861 29.7411 40.128 29.78C40.6129 29.9129 40.9359 29.9682 41.7479 30.2514C42.422 30.4865 43.0579 30.4423 43.5537 30.475C44.0918 30.5104 44.5054 30.457 44.6262 30.3581C45.0531 30.0086 44.7269 28.9682 44.6125 28.5785C44.5847 28.4835 44.5256 28.4123 44.4423 28.3479C43.775 27.8317 41.8946 27.933 40.8654 28.1173C40.6934 28.1781 40.5899 28.2361 40.4987 28.2996C40.4075 28.3631 40.3318 28.4304 40.2538 28.5373" stroke="white" stroke-linecap="round"/>
<path d="M37.9052 18.2146C37.711 18.2412 36.7582 18.5074 36.0757 18.7572C35.474 18.9774 34.5324 19.2123 32.9528 19.5882C32.1763 19.7729 31.47 20.1091 30.5769 20.5167C29.4813 21.0169 29.1582 21.1524 28.4873 21.3439C28.3186 21.392 28.1873 21.3873 28.0764 21.3508C27.2625 21.0827 26.8542 19.1976 26.6554 18.5653C26.4052 17.7694 26.3227 17.3045 26.1647 16.8287C26.0271 16.4142 25.9961 16.1473 26.0196 15.9678C26.0752 15.5443 27.1493 15.333 28.6292 14.9159C31.17 14.1997 31.9203 13.9687 32.3795 13.8021C33.1807 13.5113 33.5821 13.3952 34.1836 13.1618C34.9181 12.8768 35.686 12.5957 36.2893 12.4387C36.8391 12.2956 37.7092 12.0637 38.843 11.6413C40.5351 11.0108 41.3518 10.4433 42.0185 10.206C42.3804 10.0772 42.6994 9.93819 43.4752 9.62701C43.8954 9.4887 44.2918 9.34639 44.7007 9.18606C44.7921 9.14649 44.869 9.10477 45.028 9.06178" stroke="white" stroke-linecap="round"/>
<path d="M25.42 15.9383C25.292 15.9464 24.8287 16.0311 24.3176 16.156C23.2741 16.4111 22.6888 16.6818 22.2989 16.8237C21.9684 16.9439 21.6654 17.0996 21.4758 17.2504C21.1905 17.4772 21.6022 18.1674 21.7019 18.6488C21.7935 19.0914 21.824 19.4672 21.8692 19.9249C21.914 20.3781 22.003 20.7479 22.119 21.1008C22.2833 21.6005 22.4515 21.9955 22.5891 22.2876C22.7564 22.6429 23.6322 22.2957 24.2497 22.1008C25.3124 21.6434 25.6233 21.5109 26.0354 21.3767C26.1857 21.3389 26.3903 21.2936 26.7223 21.2262" stroke="white" stroke-linecap="round"/>
<path d="M22.8542 20.4599C23.287 20.4599 24.3246 20.4434 24.8297 20.336C25.3941 20.1742 25.6529 20.0659 25.8123 20.0025C25.8971 19.9692 25.9902 19.9338 26.2461 19.8365" stroke="white" stroke-linecap="round"/>
<path d="M20.9835 17.826C20.756 17.8533 19.8713 18.0716 19.1938 18.2775C18.5886 18.4615 18.0608 18.6357 17.6665 18.7824C17.1525 18.9735 16.7436 19.142 15.5837 19.6573C14.9677 19.931 14.6684 20.122 14.2379 20.2853C13.7424 20.4732 13.3216 20.5335 13.1473 20.5614C12.9595 20.5914 11.9045 20.9712 10.3638 21.4834C9.28077 21.8434 8.62737 22.0857 8.21151 22.2281C7.7534 22.385 7.0123 22.5918 6.44144 22.7443C6.03799 22.8522 5.68615 22.9574 5.09969 23.1401C4.69745 23.2654 4.26898 23.4935 3.69632 23.7338C3.32957 23.8877 3.01609 23.9831 2.57874 24.1544C2.0852 24.3476 1.75833 24.5823 1.43881 24.9239C1.13624 25.2473 1.09074 25.8135 1.03721 26.416C0.906939 27.8823 1.15095 28.2797 1.27407 28.668C1.39508 29.0496 1.62627 29.4638 1.83992 29.8237C2.02237 30.131 2.36735 30.3253 2.79297 30.5609C3.18465 30.7778 3.73374 30.5784 4.04103 30.395C4.18327 30.3101 4.28545 30.1784 4.37103 30.0251C4.60292 29.6096 4.51656 29.045 4.55288 28.3506C4.61918 27.083 4.30286 26.4315 4.06953 25.9586C3.868 25.5503 3.61424 25.22 3.38509 24.8096C3.32765 24.7157 3.2791 24.646 3.2399 24.5705C3.20071 24.4951 3.17235 24.4159 3.14314 24.3344" stroke="white" stroke-linecap="round"/>
<path d="M3.12573 27.5871C3.35041 27.5871 4.11831 27.4853 4.7121 27.3032C5.39286 27.0944 5.91394 26.9894 6.69599 26.769C7.38455 26.5749 7.91651 26.4337 8.76109 26.1963C9.35645 26.029 9.71451 25.868 10.4479 25.5937C11.27 25.2863 12.1515 25.1011 12.8237 24.9582C13.7129 24.7691 14.1989 24.6323 15.5167 24.3564C16.3801 24.1757 17.0139 23.9965 17.6471 23.8028C18.3033 23.6021 19.6543 23.0835 20.7433 22.7776C21.3362 22.5999 21.7255 22.5028 21.8975 22.4584C21.9824 22.4346 22.0623 22.4081 22.1639 22.3622" stroke="white" stroke-linecap="round"/>
<path d="M6.89331 26.6041C6.89331 26.8967 6.93656 27.5817 7.09862 28.0384C7.29189 28.5829 7.46518 28.8598 7.7437 29.1735C8.06315 29.5333 8.65853 29.6741 9.10422 29.7236C9.49856 29.7674 9.83241 29.7085 10.0069 29.6303C10.1607 29.5613 10.2671 29.4262 10.3677 29.2949C10.592 29.002 10.5541 27.9818 10.4607 27.3153C10.2954 26.9111 10.1026 26.7249 9.9723 26.6188C9.90996 26.5602 9.85529 26.4919 9.67902 26.2814" stroke="white" stroke-linecap="round"/>
<path d="M8.89624 27.7602H9.93114" stroke="white" stroke-linecap="round"/>
</svg>
