<svg width="73" height="73" viewBox="0 0 73 73" fill="none" xmlns="http://www.w3.org/2000/svg">
<path d="M28.1353 66.9167L26.9187 57.1833C26.2596 56.9299 25.6386 56.6257 25.0556 56.2708C24.4726 55.916 23.9023 55.5358 23.3447 55.1302L14.2957 58.9323L5.93115 44.4844L13.7634 38.5531C13.7127 38.1983 13.6874 37.8561 13.6874 37.5266V35.4734C13.6874 35.1439 13.7127 34.8017 13.7634 34.4469L5.93115 28.5156L14.2957 14.0677L23.3447 17.8698C23.9023 17.4642 24.4853 17.084 25.0937 16.7292C25.702 16.3743 26.3103 16.0701 26.9187 15.8167L28.1353 6.08333H44.8645L46.0811 15.8167C46.7402 16.0701 47.3612 16.3743 47.9442 16.7292C48.5272 17.084 49.0975 17.4642 49.6551 17.8698L58.7041 14.0677L67.0687 28.5156L59.2364 34.4469C59.2871 34.8017 59.3124 35.1439 59.3124 35.4734V37.5266C59.3124 37.8561 59.2617 38.1983 59.1603 38.5531L66.9926 44.4844L58.628 58.9323L49.6551 55.1302C49.0975 55.5358 48.5145 55.916 47.9062 56.2708C47.2978 56.6257 46.6895 56.9299 46.0811 57.1833L44.8645 66.9167H28.1353ZM36.652 47.1458C39.5923 47.1458 42.1016 46.1066 44.1801 44.0281C46.2586 41.9497 47.2978 39.4403 47.2978 36.5C47.2978 33.5597 46.2586 31.0503 44.1801 28.9719C42.1016 26.8934 39.5923 25.8542 36.652 25.8542C33.661 25.8542 31.139 26.8934 29.0858 28.9719C27.0327 31.0503 26.0062 33.5597 26.0062 36.5C26.0062 39.4403 27.0327 41.9497 29.0858 44.0281C31.139 46.1066 33.661 47.1458 36.652 47.1458Z" fill="white"/>
</svg>
